%TF.GenerationSoftware,KiCad,Pcbnew,(6.0.2)*%
%TF.CreationDate,2022-07-21T18:21:10-07:00*%
%TF.ProjectId,testCoupon,74657374-436f-4757-906f-6e2e6b696361,1*%
%TF.SameCoordinates,Original*%
%TF.FileFunction,Copper,L1,Top*%
%TF.FilePolarity,Positive*%
%FSLAX46Y46*%
G04 Gerber Fmt 4.6, Leading zero omitted, Abs format (unit mm)*
G04 Created by KiCad (PCBNEW (6.0.2)) date 2022-07-21 18:21:10*
%MOMM*%
%LPD*%
G01*
G04 APERTURE LIST*
%TA.AperFunction,NonConductor*%
%ADD10C,0.200000*%
%TD*%
%TA.AperFunction,SMDPad,CuDef*%
%ADD11R,4.000000X1.200000*%
%TD*%
%TA.AperFunction,SMDPad,CuDef*%
%ADD12R,4.000000X1.280000*%
%TD*%
%TA.AperFunction,SMDPad,CuDef*%
%ADD13O,31.360000X0.296416*%
%TD*%
%TA.AperFunction,ComponentPad*%
%ADD14C,0.380000*%
%TD*%
%TA.AperFunction,SMDPad,CuDef*%
%ADD15O,31.360000X0.297180*%
%TD*%
%TA.AperFunction,ViaPad*%
%ADD16C,0.800000*%
%TD*%
%TA.AperFunction,Conductor*%
%ADD17C,0.293370*%
%TD*%
%TA.AperFunction,Conductor*%
%ADD18C,0.430733*%
%TD*%
%TA.AperFunction,Conductor*%
%ADD19C,0.360680*%
%TD*%
G04 APERTURE END LIST*
D10*
X140700000Y-109300000D02*
X140000000Y-109800000D01*
X140000000Y-109800000D02*
X140000000Y-108800000D01*
X140000000Y-108800000D02*
X140700000Y-109300000D01*
G36*
X140700000Y-109300000D02*
G01*
X140000000Y-109800000D01*
X140000000Y-108800000D01*
X140700000Y-109300000D01*
G37*
X140700000Y-109300000D02*
X140000000Y-109800000D01*
X140000000Y-108800000D01*
X140700000Y-109300000D01*
X140700000Y-86100000D02*
X140000000Y-86600000D01*
X140000000Y-86600000D02*
X140000000Y-85600000D01*
X140000000Y-85600000D02*
X140700000Y-86100000D01*
G36*
X140700000Y-86100000D02*
G01*
X140000000Y-86600000D01*
X140000000Y-85600000D01*
X140700000Y-86100000D01*
G37*
X140700000Y-86100000D02*
X140000000Y-86600000D01*
X140000000Y-85600000D01*
X140700000Y-86100000D01*
X140700000Y-74500000D02*
X140000000Y-75000000D01*
X140000000Y-75000000D02*
X140000000Y-74000000D01*
X140000000Y-74000000D02*
X140700000Y-74500000D01*
G36*
X140700000Y-74500000D02*
G01*
X140000000Y-75000000D01*
X140000000Y-74000000D01*
X140700000Y-74500000D01*
G37*
X140700000Y-74500000D02*
X140000000Y-75000000D01*
X140000000Y-74000000D01*
X140700000Y-74500000D01*
X140706757Y-97700000D02*
X140000000Y-98200000D01*
X140000000Y-98200000D02*
X140000000Y-97200000D01*
X140000000Y-97200000D02*
X140706757Y-97700000D01*
G36*
X140706757Y-97700000D02*
G01*
X140000000Y-98200000D01*
X140000000Y-97200000D01*
X140706757Y-97700000D01*
G37*
X140706757Y-97700000D02*
X140000000Y-98200000D01*
X140000000Y-97200000D01*
X140706757Y-97700000D01*
X171700000Y-86100000D02*
X172400000Y-85600000D01*
X172400000Y-85600000D02*
X172400000Y-86600000D01*
X172400000Y-86600000D02*
X171700000Y-86100000D01*
G36*
X172400000Y-86600000D02*
G01*
X171700000Y-86100000D01*
X172400000Y-85600000D01*
X172400000Y-86600000D01*
G37*
X172400000Y-86600000D02*
X171700000Y-86100000D01*
X172400000Y-85600000D01*
X172400000Y-86600000D01*
X140700000Y-62900000D02*
X140000000Y-63400000D01*
X140000000Y-63400000D02*
X140000000Y-62400000D01*
X140000000Y-62400000D02*
X140700000Y-62900000D01*
G36*
X140700000Y-62900000D02*
G01*
X140000000Y-63400000D01*
X140000000Y-62400000D01*
X140700000Y-62900000D01*
G37*
X140700000Y-62900000D02*
X140000000Y-63400000D01*
X140000000Y-62400000D01*
X140700000Y-62900000D01*
X171700000Y-109300000D02*
X172400000Y-108800000D01*
X172400000Y-108800000D02*
X172400000Y-109800000D01*
X172400000Y-109800000D02*
X171700000Y-109300000D01*
G36*
X172400000Y-109800000D02*
G01*
X171700000Y-109300000D01*
X172400000Y-108800000D01*
X172400000Y-109800000D01*
G37*
X172400000Y-109800000D02*
X171700000Y-109300000D01*
X172400000Y-108800000D01*
X172400000Y-109800000D01*
X171700000Y-74477027D02*
X172400000Y-74000000D01*
X172400000Y-74000000D02*
X172400000Y-75000000D01*
X172400000Y-75000000D02*
X171700000Y-74477027D01*
G36*
X172400000Y-75000000D02*
G01*
X171700000Y-74477027D01*
X172400000Y-74000000D01*
X172400000Y-75000000D01*
G37*
X172400000Y-75000000D02*
X171700000Y-74477027D01*
X172400000Y-74000000D01*
X172400000Y-75000000D01*
X171700000Y-62900000D02*
X172400000Y-62400000D01*
X172400000Y-62400000D02*
X172400000Y-63400000D01*
X172400000Y-63400000D02*
X171700000Y-62900000D01*
G36*
X172400000Y-63400000D02*
G01*
X171700000Y-62900000D01*
X172400000Y-62400000D01*
X172400000Y-63400000D01*
G37*
X172400000Y-63400000D02*
X171700000Y-62900000D01*
X172400000Y-62400000D01*
X172400000Y-63400000D01*
X171706757Y-97700000D02*
X172406757Y-97200000D01*
X172406757Y-97200000D02*
X172406757Y-98200000D01*
X172406757Y-98200000D02*
X171706757Y-97700000D01*
G36*
X172406757Y-98200000D02*
G01*
X171706757Y-97700000D01*
X172406757Y-97200000D01*
X172406757Y-98200000D01*
G37*
X172406757Y-98200000D02*
X171706757Y-97700000D01*
X172406757Y-97200000D01*
X172406757Y-98200000D01*
D11*
%TO.P,J6,1,In*%
%TO.N,Net-(J5-Pad1)*%
X174400000Y-86100000D03*
D12*
%TO.P,J6,2,Ext*%
%TO.N,GND*%
X174400000Y-83110000D03*
X174400000Y-89080000D03*
%TD*%
D11*
%TO.P,J3,1,In*%
%TO.N,Net-(J3-Pad1)*%
X138000000Y-74500000D03*
D12*
%TO.P,J3,2,Ext*%
%TO.N,GND*%
X138000000Y-77490000D03*
X138000000Y-71520000D03*
%TD*%
D11*
%TO.P,J4,1,In*%
%TO.N,Net-(J3-Pad1)*%
X174404250Y-74500000D03*
D12*
%TO.P,J4,2,Ext*%
%TO.N,GND*%
X174404250Y-71510000D03*
X174404250Y-77480000D03*
%TD*%
D11*
%TO.P,J7,1,In*%
%TO.N,Net-(J7-Pad1)*%
X138006757Y-97700000D03*
D12*
%TO.P,J7,2,Ext*%
%TO.N,GND*%
X138006757Y-100690000D03*
X138006757Y-94720000D03*
%TD*%
D11*
%TO.P,J1,1,In*%
%TO.N,Net-(J1-Pad1)*%
X138000000Y-62900000D03*
D12*
%TO.P,J1,2,Ext*%
%TO.N,GND*%
X138000000Y-65890000D03*
X138000000Y-59920000D03*
%TD*%
D11*
%TO.P,J8,1,In*%
%TO.N,Net-(J8-Pad1)*%
X174406757Y-97700000D03*
D12*
%TO.P,J8,2,Ext*%
%TO.N,GND*%
X174406757Y-94710000D03*
X174406757Y-100680000D03*
%TD*%
D11*
%TO.P,J2,1,In*%
%TO.N,Net-(J1-Pad1)*%
X174400000Y-62900000D03*
D12*
%TO.P,J2,2,Ext*%
%TO.N,GND*%
X174400000Y-59910000D03*
X174400000Y-65880000D03*
%TD*%
D11*
%TO.P,J5,1,In*%
%TO.N,Net-(J5-Pad1)*%
X138000000Y-86100000D03*
D12*
%TO.P,J5,2,Ext*%
%TO.N,GND*%
X138000000Y-89090000D03*
X138000000Y-83120000D03*
%TD*%
D11*
%TO.P,J10,1,In*%
%TO.N,Net-(J10-Pad1)*%
X174400000Y-109300000D03*
D12*
%TO.P,J10,2,Ext*%
%TO.N,GND*%
X174400000Y-106310000D03*
X174400000Y-112280000D03*
%TD*%
D11*
%TO.P,J9,1,In*%
%TO.N,Net-(J9-Pad1)*%
X138000000Y-109300000D03*
D12*
%TO.P,J9,2,Ext*%
%TO.N,GND*%
X138000000Y-112290000D03*
X138000000Y-106320000D03*
%TD*%
D13*
%TO.P,NT5,1,1*%
%TO.N,Net-(J9-Pad1)*%
X156220000Y-109300000D03*
D14*
%TO.P,NT5,2,2*%
%TO.N,GND*%
X158427500Y-110076000D03*
X169866200Y-108524000D03*
X165466700Y-108524000D03*
X153148100Y-108524000D03*
X166346600Y-110076000D03*
X151388300Y-110076000D03*
X165466700Y-110076000D03*
X160187300Y-110076000D03*
X152268200Y-110076000D03*
X168986300Y-110076000D03*
X161947100Y-108524000D03*
X162827000Y-108524000D03*
X170746100Y-110076000D03*
X155787800Y-108524000D03*
X159307400Y-110076000D03*
X149628500Y-108524000D03*
X141709400Y-110076000D03*
X142589300Y-110076000D03*
X150508400Y-108524000D03*
X158427500Y-108524000D03*
X147868700Y-110076000D03*
X154907900Y-108524000D03*
X155787800Y-110076000D03*
X142589300Y-108524000D03*
X148748600Y-110076000D03*
X147868700Y-108524000D03*
X156667700Y-108524000D03*
X150508400Y-110076000D03*
X144349100Y-110076000D03*
X171626000Y-108524000D03*
X160187300Y-108524000D03*
X149628500Y-110076000D03*
X157547600Y-110076000D03*
X146988800Y-108524000D03*
X140829500Y-110076000D03*
X168986300Y-108524000D03*
X169866200Y-110076000D03*
X161067200Y-110076000D03*
X171626000Y-110076000D03*
X143469200Y-110076000D03*
X143469200Y-108524000D03*
X159307400Y-108524000D03*
X161067200Y-108524000D03*
X168106400Y-110076000D03*
X144349100Y-108524000D03*
X164586800Y-108524000D03*
X154028000Y-108524000D03*
X154028000Y-110076000D03*
X161947100Y-110076000D03*
X162827000Y-110076000D03*
X146988800Y-110076000D03*
X146108900Y-110076000D03*
X170746100Y-108524000D03*
X156667700Y-110076000D03*
X153148100Y-110076000D03*
X167226500Y-110076000D03*
X151388300Y-108524000D03*
X166346600Y-108524000D03*
X168106400Y-108524000D03*
X157547600Y-108524000D03*
X148748600Y-108524000D03*
X163706900Y-110076000D03*
X140829500Y-108524000D03*
X146108900Y-108524000D03*
X154907900Y-110076000D03*
X145229000Y-110076000D03*
X164586800Y-110076000D03*
X152268200Y-108524000D03*
X167226500Y-108524000D03*
X141709400Y-108524000D03*
X145229000Y-108524000D03*
X163706900Y-108524000D03*
%TD*%
D15*
%TO.P,NT4,1,1*%
%TO.N,Net-(J7-Pad1)*%
X156206757Y-97700000D03*
%TD*%
D16*
%TO.N,GND*%
X153752000Y-80300000D03*
X150488000Y-91900000D03*
X174968000Y-103500000D03*
X176600000Y-103500000D03*
X160280000Y-68700000D03*
X170072000Y-80300000D03*
X148856000Y-91900000D03*
X170072000Y-91900000D03*
X142328000Y-103500000D03*
X145592000Y-103500000D03*
X163544000Y-103500000D03*
X147224000Y-80300000D03*
X163544000Y-91900000D03*
X170072000Y-103500000D03*
X168440000Y-80300000D03*
X157016000Y-91900000D03*
X150488000Y-80300000D03*
X166808000Y-80300000D03*
X155384000Y-80300000D03*
X152120000Y-80300000D03*
X157016000Y-103500000D03*
X163544000Y-80300000D03*
X163544000Y-68700000D03*
X160280000Y-103500000D03*
X171704000Y-68700000D03*
X148856000Y-80300000D03*
X137432000Y-91900000D03*
X147224000Y-91900000D03*
X165176000Y-91900000D03*
X153752000Y-103500000D03*
X143960000Y-80300000D03*
X137432000Y-103500000D03*
X158648000Y-68700000D03*
X165176000Y-80300000D03*
X147224000Y-68700000D03*
X173336000Y-80300000D03*
X171704000Y-91900000D03*
X168440000Y-91900000D03*
X161912000Y-103500000D03*
X148856000Y-68700000D03*
X139064000Y-80300000D03*
X135800000Y-80300000D03*
X143960000Y-91900000D03*
X137432000Y-80300000D03*
X157016000Y-80300000D03*
X168440000Y-68700000D03*
X153752000Y-91900000D03*
X142328000Y-91900000D03*
X135800000Y-91900000D03*
X153752000Y-68700000D03*
X157016000Y-68700000D03*
X171704000Y-103500000D03*
X176600000Y-91900000D03*
X161912000Y-91900000D03*
X166808000Y-103500000D03*
X166808000Y-91900000D03*
X155384000Y-91900000D03*
X171704000Y-80300000D03*
X140696000Y-80300000D03*
X139064000Y-68700000D03*
X165176000Y-68700000D03*
X168440000Y-103500000D03*
X143960000Y-103500000D03*
X135800000Y-103500000D03*
X170072000Y-68700000D03*
X174968000Y-91900000D03*
X161912000Y-80300000D03*
X160280000Y-80300000D03*
X161912000Y-68700000D03*
X140696000Y-68700000D03*
X137432000Y-68700000D03*
X174968000Y-68700000D03*
X174968000Y-80300000D03*
X173336000Y-68700000D03*
X139064000Y-91900000D03*
X150488000Y-103500000D03*
X145592000Y-91900000D03*
X142328000Y-80300000D03*
X152120000Y-68700000D03*
X152120000Y-91900000D03*
X155384000Y-103500000D03*
X150488000Y-68700000D03*
X140696000Y-91900000D03*
X166808000Y-68700000D03*
X145592000Y-80300000D03*
X173336000Y-91900000D03*
X176600000Y-80300000D03*
X135800000Y-68700000D03*
X145592000Y-68700000D03*
X139064000Y-103500000D03*
X176600000Y-68700000D03*
X142328000Y-68700000D03*
X152120000Y-103500000D03*
X147224000Y-103500000D03*
X143960000Y-68700000D03*
X155384000Y-68700000D03*
X165176000Y-103500000D03*
X148856000Y-103500000D03*
X158648000Y-80300000D03*
X158648000Y-91900000D03*
X158648000Y-103500000D03*
X160280000Y-91900000D03*
X173336000Y-103500000D03*
X140696000Y-103500000D03*
%TD*%
D17*
%TO.N,Net-(J1-Pad1)*%
X138000000Y-62900000D02*
X174400000Y-62900000D01*
D18*
%TO.N,Net-(J3-Pad1)*%
X138000000Y-74500000D02*
X174404250Y-74500000D01*
D19*
%TO.N,Net-(J5-Pad1)*%
X138000000Y-86100000D02*
X174400000Y-86100000D01*
%TD*%
%TA.AperFunction,Conductor*%
%TO.N,GND*%
G36*
X177071173Y-57628827D02*
G01*
X177074600Y-57637100D01*
X177074600Y-60688300D01*
X177071173Y-60696573D01*
X177062900Y-60700000D01*
X135337100Y-60700000D01*
X135328827Y-60696573D01*
X135325400Y-60688300D01*
X135325400Y-57637100D01*
X135328827Y-57628827D01*
X135337100Y-57625400D01*
X177062900Y-57625400D01*
X177071173Y-57628827D01*
G37*
%TD.AperFunction*%
%TD*%
%TA.AperFunction,Conductor*%
%TO.N,GND*%
G36*
X171676910Y-109652178D02*
G01*
X172220852Y-110040708D01*
X172221105Y-110040896D01*
X172262869Y-110072654D01*
X172293399Y-110081495D01*
X172295086Y-110082128D01*
X172322925Y-110095102D01*
X172323906Y-110095559D01*
X172342053Y-110096792D01*
X172346252Y-110097078D01*
X172348712Y-110097513D01*
X172355434Y-110099459D01*
X172370218Y-110103740D01*
X172371293Y-110103647D01*
X172371295Y-110103647D01*
X172388768Y-110102133D01*
X172401887Y-110100997D01*
X172403685Y-110100980D01*
X172415518Y-110101784D01*
X172434331Y-110103063D01*
X172434332Y-110103063D01*
X172435409Y-110103136D01*
X172442226Y-110101024D01*
X172445689Y-110100500D01*
X176419748Y-110100500D01*
X176420313Y-110100388D01*
X176420319Y-110100387D01*
X176421131Y-110100225D01*
X176423413Y-110100000D01*
X177062900Y-110100000D01*
X177071173Y-110103427D01*
X177074600Y-110111700D01*
X177074600Y-114562900D01*
X177071173Y-114571173D01*
X177062900Y-114574600D01*
X156300000Y-114574600D01*
X156300000Y-109650000D01*
X171670112Y-109650000D01*
X171676910Y-109652178D01*
G37*
%TD.AperFunction*%
%TD*%
%TA.AperFunction,Conductor*%
%TO.N,GND*%
G36*
X156606757Y-97350910D02*
G01*
X140756077Y-97350910D01*
X140749449Y-97348851D01*
X140144687Y-96933077D01*
X140144288Y-96932789D01*
X140140183Y-96929667D01*
X140137993Y-96928001D01*
X140137991Y-96928000D01*
X140137131Y-96927346D01*
X140136105Y-96927049D01*
X140134767Y-96926257D01*
X140108220Y-96908006D01*
X140106757Y-96907000D01*
X140083615Y-96907000D01*
X140078721Y-96905927D01*
X140075732Y-96904550D01*
X140075730Y-96904550D01*
X140074752Y-96904099D01*
X140053113Y-96902727D01*
X140050599Y-96902288D01*
X140041361Y-96899613D01*
X140029782Y-96896260D01*
X140028707Y-96896353D01*
X140028705Y-96896353D01*
X140011093Y-96897879D01*
X139997406Y-96899064D01*
X139995661Y-96899085D01*
X139986903Y-96898530D01*
X139964296Y-96897096D01*
X139964294Y-96897096D01*
X139963217Y-96897028D01*
X139962185Y-96897353D01*
X139962184Y-96897353D01*
X139957079Y-96898960D01*
X139953566Y-96899500D01*
X135987009Y-96899500D01*
X135986442Y-96899613D01*
X135986440Y-96899613D01*
X135950435Y-96906775D01*
X135948152Y-96907000D01*
X135337100Y-96907000D01*
X135328827Y-96903573D01*
X135325400Y-96895300D01*
X135325400Y-92307000D01*
X156606757Y-92307000D01*
X156606757Y-97350910D01*
G37*
%TD.AperFunction*%
%TD*%
%TA.AperFunction,Conductor*%
%TO.N,GND*%
G36*
X177071173Y-102003427D02*
G01*
X177074600Y-102011700D01*
X177074600Y-104500000D01*
X135325400Y-104500000D01*
X135325400Y-102011700D01*
X135328827Y-102003427D01*
X135337100Y-102000000D01*
X177062900Y-102000000D01*
X177071173Y-102003427D01*
G37*
%TD.AperFunction*%
%TD*%
%TA.AperFunction,Conductor*%
%TO.N,GND*%
G36*
X156300000Y-108950000D02*
G01*
X140729888Y-108950000D01*
X140723089Y-108947821D01*
X140179198Y-108559328D01*
X140178916Y-108559120D01*
X140137989Y-108527998D01*
X140137987Y-108527997D01*
X140137131Y-108527346D01*
X140136389Y-108527131D01*
X140135162Y-108526371D01*
X140101520Y-108501140D01*
X140100000Y-108500000D01*
X140044356Y-108500000D01*
X140041103Y-108499538D01*
X140029782Y-108496260D01*
X140028707Y-108496353D01*
X140028705Y-108496353D01*
X140011232Y-108497867D01*
X139998113Y-108499003D01*
X139996315Y-108499020D01*
X139984462Y-108498214D01*
X139965670Y-108496937D01*
X139965669Y-108496937D01*
X139964592Y-108496864D01*
X139959678Y-108498386D01*
X139957774Y-108498976D01*
X139954312Y-108499500D01*
X135980252Y-108499500D01*
X135979687Y-108499612D01*
X135979681Y-108499613D01*
X135978869Y-108499775D01*
X135976587Y-108500000D01*
X135337100Y-108500000D01*
X135328827Y-108496573D01*
X135325400Y-108488300D01*
X135325400Y-104500000D01*
X156300000Y-104500000D01*
X156300000Y-108950000D01*
G37*
%TD.AperFunction*%
%TD*%
%TA.AperFunction,Conductor*%
%TO.N,GND*%
G36*
X156606757Y-101994000D02*
G01*
X135337100Y-101994000D01*
X135328827Y-101990573D01*
X135325400Y-101982300D01*
X135325400Y-98505738D01*
X135328827Y-98497465D01*
X135337115Y-98494038D01*
X135957284Y-98494814D01*
X135959551Y-98495039D01*
X135986439Y-98500387D01*
X135986443Y-98500387D01*
X135987009Y-98500500D01*
X139957370Y-98500500D01*
X139960625Y-98500962D01*
X139970218Y-98503740D01*
X139971294Y-98503647D01*
X139971295Y-98503647D01*
X139991811Y-98501870D01*
X139994362Y-98501928D01*
X140014783Y-98504643D01*
X140014785Y-98504643D01*
X140015854Y-98504785D01*
X140034755Y-98500238D01*
X140037504Y-98499914D01*
X140104963Y-98499998D01*
X140104964Y-98499998D01*
X140106757Y-98500000D01*
X140110405Y-98497465D01*
X140752538Y-98051182D01*
X140759215Y-98049090D01*
X156606757Y-98049090D01*
X156606757Y-101994000D01*
G37*
%TD.AperFunction*%
%TD*%
%TA.AperFunction,Conductor*%
%TO.N,GND*%
G36*
X156300000Y-114574600D02*
G01*
X135337100Y-114574600D01*
X135328827Y-114571173D01*
X135325400Y-114562900D01*
X135325400Y-110111700D01*
X135328827Y-110103427D01*
X135337100Y-110100000D01*
X135976587Y-110100000D01*
X135978869Y-110100225D01*
X135979681Y-110100387D01*
X135979687Y-110100388D01*
X135980252Y-110100500D01*
X139957370Y-110100500D01*
X139960624Y-110100962D01*
X139964886Y-110102196D01*
X139970218Y-110103740D01*
X139971294Y-110103647D01*
X139971295Y-110103647D01*
X139992524Y-110101809D01*
X139995022Y-110101860D01*
X140016168Y-110104573D01*
X140016169Y-110104573D01*
X140017237Y-110104710D01*
X140035058Y-110100337D01*
X140037846Y-110100000D01*
X140200000Y-110100000D01*
X140796880Y-109652340D01*
X140803900Y-109650000D01*
X156300000Y-109650000D01*
X156300000Y-114574600D01*
G37*
%TD.AperFunction*%
%TD*%
%TA.AperFunction,Conductor*%
%TO.N,GND*%
G36*
X177071173Y-88303427D02*
G01*
X177074600Y-88311700D01*
X177074600Y-92400000D01*
X135337100Y-92400000D01*
X135328827Y-92396573D01*
X135325400Y-92388300D01*
X135325400Y-88311700D01*
X135328827Y-88303427D01*
X135337100Y-88300000D01*
X177062900Y-88300000D01*
X177071173Y-88303427D01*
G37*
%TD.AperFunction*%
%TD*%
%TA.AperFunction,Conductor*%
%TO.N,GND*%
G36*
X177074600Y-96895300D02*
G01*
X177071173Y-96903573D01*
X177062900Y-96907000D01*
X176465362Y-96907000D01*
X176463079Y-96906775D01*
X176427074Y-96899613D01*
X176427072Y-96899613D01*
X176426505Y-96899500D01*
X172449387Y-96899500D01*
X172446133Y-96899038D01*
X172437578Y-96896561D01*
X172437579Y-96896561D01*
X172436539Y-96896260D01*
X172435463Y-96896353D01*
X172435462Y-96896353D01*
X172414234Y-96898191D01*
X172411736Y-96898140D01*
X172390590Y-96895427D01*
X172390589Y-96895427D01*
X172389521Y-96895290D01*
X172388474Y-96895547D01*
X172358641Y-96902867D01*
X172356863Y-96903160D01*
X172336790Y-96904899D01*
X172325197Y-96905903D01*
X172324227Y-96906377D01*
X172323517Y-96906574D01*
X172320390Y-96907000D01*
X172306757Y-96907000D01*
X172305294Y-96908006D01*
X172289071Y-96919159D01*
X172285232Y-96920881D01*
X172281784Y-96921727D01*
X172281783Y-96921728D01*
X172280982Y-96921924D01*
X172280268Y-96922335D01*
X172280266Y-96922336D01*
X172278226Y-96923511D01*
X172275519Y-96925070D01*
X172275288Y-96925235D01*
X172253612Y-96940718D01*
X172251949Y-96941708D01*
X172224791Y-96954983D01*
X172208222Y-96972845D01*
X172206447Y-96974407D01*
X172148364Y-97015895D01*
X171664065Y-97348851D01*
X171657437Y-97350910D01*
X156606757Y-97350910D01*
X156606757Y-92307000D01*
X177074600Y-92307000D01*
X177074600Y-96895300D01*
G37*
%TD.AperFunction*%
%TD*%
%TA.AperFunction,Conductor*%
%TO.N,GND*%
G36*
X177071173Y-76703427D02*
G01*
X177074600Y-76711700D01*
X177074600Y-83888300D01*
X177071173Y-83896573D01*
X177062900Y-83900000D01*
X135337100Y-83900000D01*
X135328827Y-83896573D01*
X135325400Y-83888300D01*
X135325400Y-76711700D01*
X135328827Y-76703427D01*
X135337100Y-76700000D01*
X177062900Y-76700000D01*
X177071173Y-76703427D01*
G37*
%TD.AperFunction*%
%TD*%
%TA.AperFunction,Conductor*%
%TO.N,GND*%
G36*
X177071173Y-65103427D02*
G01*
X177074600Y-65111700D01*
X177074600Y-72288300D01*
X177071173Y-72296573D01*
X177062900Y-72300000D01*
X135337100Y-72300000D01*
X135328827Y-72296573D01*
X135325400Y-72288300D01*
X135325400Y-65111700D01*
X135328827Y-65103427D01*
X135337100Y-65100000D01*
X177062900Y-65100000D01*
X177071173Y-65103427D01*
G37*
%TD.AperFunction*%
%TD*%
%TA.AperFunction,Conductor*%
%TO.N,GND*%
G36*
X177074600Y-108488300D02*
G01*
X177071173Y-108496573D01*
X177062900Y-108500000D01*
X176423413Y-108500000D01*
X176421131Y-108499775D01*
X176420319Y-108499613D01*
X176420313Y-108499612D01*
X176419748Y-108499500D01*
X172442630Y-108499500D01*
X172439376Y-108499038D01*
X172435114Y-108497804D01*
X172429782Y-108496260D01*
X172428706Y-108496353D01*
X172428705Y-108496353D01*
X172407477Y-108498191D01*
X172404979Y-108498140D01*
X172383833Y-108495427D01*
X172383832Y-108495427D01*
X172382764Y-108495290D01*
X172381717Y-108495547D01*
X172364942Y-108499663D01*
X172362154Y-108500000D01*
X172300000Y-108500000D01*
X172243772Y-108542171D01*
X172241890Y-108543322D01*
X172218034Y-108554983D01*
X172201463Y-108572847D01*
X172199686Y-108574410D01*
X171676910Y-108947821D01*
X171670111Y-108950000D01*
X156300000Y-108950000D01*
X156300000Y-104500000D01*
X177074600Y-104500000D01*
X177074600Y-108488300D01*
G37*
%TD.AperFunction*%
%TD*%
%TA.AperFunction,Conductor*%
%TO.N,GND*%
G36*
X171660975Y-98051182D02*
G01*
X172306757Y-98500000D01*
X172308550Y-98499998D01*
X172308551Y-98499998D01*
X172362146Y-98499931D01*
X172365415Y-98500393D01*
X172367595Y-98501024D01*
X172376975Y-98503740D01*
X172378050Y-98503647D01*
X172378052Y-98503647D01*
X172395525Y-98502133D01*
X172408644Y-98500997D01*
X172410442Y-98500980D01*
X172422275Y-98501784D01*
X172441088Y-98503063D01*
X172441089Y-98503063D01*
X172442166Y-98503136D01*
X172448983Y-98501024D01*
X172452446Y-98500500D01*
X176426505Y-98500500D01*
X176427072Y-98500387D01*
X176427074Y-98500387D01*
X176453965Y-98495038D01*
X176456233Y-98494813D01*
X177062885Y-98494055D01*
X177071163Y-98497472D01*
X177074600Y-98505755D01*
X177074600Y-101982300D01*
X177071173Y-101990573D01*
X177062900Y-101994000D01*
X156606757Y-101994000D01*
X156606757Y-98049090D01*
X171654299Y-98049090D01*
X171660975Y-98051182D01*
G37*
%TD.AperFunction*%
%TD*%
M02*
