%TF.GenerationSoftware,KiCad,Pcbnew,(6.0.2)*%
%TF.CreationDate,2022-07-21T18:21:11-07:00*%
%TF.ProjectId,testCoupon,74657374-436f-4757-906f-6e2e6b696361,1*%
%TF.SameCoordinates,Original*%
%TF.FileFunction,Soldermask,Top*%
%TF.FilePolarity,Negative*%
%FSLAX46Y46*%
G04 Gerber Fmt 4.6, Leading zero omitted, Abs format (unit mm)*
G04 Created by KiCad (PCBNEW (6.0.2)) date 2022-07-21 18:21:11*
%MOMM*%
%LPD*%
G01*
G04 APERTURE LIST*
%ADD10C,0.150000*%
%ADD11R,4.000000X1.200000*%
%ADD12R,4.000000X1.280000*%
%ADD13O,31.360000X0.296416*%
%ADD14C,0.380000*%
%ADD15O,31.360000X0.297180*%
G04 APERTURE END LIST*
D10*
X135300000Y-73300000D02*
X177100000Y-73300000D01*
X177100000Y-73300000D02*
X177100000Y-75700000D01*
X177100000Y-75700000D02*
X135300000Y-75700000D01*
X135300000Y-75700000D02*
X135300000Y-73300000D01*
G36*
X135300000Y-73300000D02*
G01*
X177100000Y-73300000D01*
X177100000Y-75700000D01*
X135300000Y-75700000D01*
X135300000Y-73300000D01*
G37*
X171600000Y-67600000D02*
X176400000Y-67600000D01*
X176400000Y-67600000D02*
X176400000Y-65200000D01*
X176400000Y-65200000D02*
X171600000Y-65200000D01*
X171600000Y-65200000D02*
X171600000Y-67600000D01*
G36*
X171600000Y-67600000D02*
G01*
X176400000Y-67600000D01*
X176400000Y-65200000D01*
X171600000Y-65200000D01*
X171600000Y-67600000D01*
G37*
X176400000Y-76900000D02*
X171600000Y-76900000D01*
X171600000Y-76900000D02*
X171600000Y-79300000D01*
X171600000Y-79300000D02*
X176400000Y-79300000D01*
X176400000Y-79300000D02*
X176400000Y-76900000D01*
G36*
X176400000Y-76900000D02*
G01*
X171600000Y-76900000D01*
X171600000Y-79300000D01*
X176400000Y-79300000D01*
X176400000Y-76900000D01*
G37*
X135300000Y-108100000D02*
X177100000Y-108100000D01*
X177100000Y-108100000D02*
X177100000Y-110500000D01*
X177100000Y-110500000D02*
X135300000Y-110500000D01*
X135300000Y-110500000D02*
X135300000Y-108100000D01*
G36*
X135300000Y-108100000D02*
G01*
X177100000Y-108100000D01*
X177100000Y-110500000D01*
X135300000Y-110500000D01*
X135300000Y-108100000D01*
G37*
X135300000Y-96500000D02*
X177100000Y-96500000D01*
X177100000Y-96500000D02*
X177100000Y-98900000D01*
X177100000Y-98900000D02*
X135300000Y-98900000D01*
X135300000Y-98900000D02*
X135300000Y-96500000D01*
G36*
X135300000Y-96500000D02*
G01*
X177100000Y-96500000D01*
X177100000Y-98900000D01*
X135300000Y-98900000D01*
X135300000Y-96500000D01*
G37*
X140750000Y-104500000D02*
X136050000Y-104500000D01*
X136050000Y-104500000D02*
X136050000Y-106900000D01*
X136050000Y-106900000D02*
X140750000Y-106900000D01*
X140750000Y-106900000D02*
X140750000Y-104500000D01*
G36*
X140750000Y-104500000D02*
G01*
X136050000Y-104500000D01*
X136050000Y-106900000D01*
X140750000Y-106900000D01*
X140750000Y-104500000D01*
G37*
X140800000Y-88500000D02*
X136000000Y-88500000D01*
X136000000Y-88500000D02*
X136000000Y-90900000D01*
X136000000Y-90900000D02*
X140800000Y-90900000D01*
X140800000Y-90900000D02*
X140800000Y-88500000D01*
G36*
X140800000Y-88500000D02*
G01*
X136000000Y-88500000D01*
X136000000Y-90900000D01*
X140800000Y-90900000D01*
X140800000Y-88500000D01*
G37*
X176350000Y-88500000D02*
X171650000Y-88500000D01*
X171650000Y-88500000D02*
X171650000Y-90900000D01*
X171650000Y-90900000D02*
X176350000Y-90900000D01*
X176350000Y-90900000D02*
X176350000Y-88500000D01*
G36*
X176350000Y-88500000D02*
G01*
X171650000Y-88500000D01*
X171650000Y-90900000D01*
X176350000Y-90900000D01*
X176350000Y-88500000D01*
G37*
X176400000Y-81300000D02*
X171600000Y-81300000D01*
X171600000Y-81300000D02*
X171600000Y-83700000D01*
X171600000Y-83700000D02*
X176400000Y-83700000D01*
X176400000Y-83700000D02*
X176400000Y-81300000D01*
G36*
X176400000Y-81300000D02*
G01*
X171600000Y-81300000D01*
X171600000Y-83700000D01*
X176400000Y-83700000D01*
X176400000Y-81300000D01*
G37*
X135300000Y-61700000D02*
X177100000Y-61700000D01*
X177100000Y-61700000D02*
X177100000Y-64100000D01*
X177100000Y-64100000D02*
X135300000Y-64100000D01*
X135300000Y-64100000D02*
X135300000Y-61700000D01*
G36*
X135300000Y-61700000D02*
G01*
X177100000Y-61700000D01*
X177100000Y-64100000D01*
X135300000Y-64100000D01*
X135300000Y-61700000D01*
G37*
X136000000Y-79300000D02*
X140800000Y-79300000D01*
X140800000Y-79300000D02*
X140800000Y-76900000D01*
X140800000Y-76900000D02*
X136000000Y-76900000D01*
X136000000Y-76900000D02*
X136000000Y-79300000D01*
G36*
X136000000Y-79300000D02*
G01*
X140800000Y-79300000D01*
X140800000Y-76900000D01*
X136000000Y-76900000D01*
X136000000Y-79300000D01*
G37*
X135300000Y-84900000D02*
X177100000Y-84900000D01*
X177100000Y-84900000D02*
X177100000Y-87300000D01*
X177100000Y-87300000D02*
X135300000Y-87300000D01*
X135300000Y-87300000D02*
X135300000Y-84900000D01*
G36*
X135300000Y-84900000D02*
G01*
X177100000Y-84900000D01*
X177100000Y-87300000D01*
X135300000Y-87300000D01*
X135300000Y-84900000D01*
G37*
X176350000Y-100100000D02*
X171650000Y-100100000D01*
X171650000Y-100100000D02*
X171650000Y-102500000D01*
X171650000Y-102500000D02*
X176350000Y-102500000D01*
X176350000Y-102500000D02*
X176350000Y-100100000D01*
G36*
X176350000Y-100100000D02*
G01*
X171650000Y-100100000D01*
X171650000Y-102500000D01*
X176350000Y-102500000D01*
X176350000Y-100100000D01*
G37*
X136000000Y-60500000D02*
X140800000Y-60500000D01*
X140800000Y-60500000D02*
X140800000Y-58100000D01*
X140800000Y-58100000D02*
X136000000Y-58100000D01*
X136000000Y-58100000D02*
X136000000Y-60500000D01*
G36*
X136000000Y-60500000D02*
G01*
X140800000Y-60500000D01*
X140800000Y-58100000D01*
X136000000Y-58100000D01*
X136000000Y-60500000D01*
G37*
X136000000Y-72100000D02*
X140800000Y-72100000D01*
X140800000Y-72100000D02*
X140800000Y-69700000D01*
X140800000Y-69700000D02*
X136000000Y-69700000D01*
X136000000Y-69700000D02*
X136000000Y-72100000D01*
G36*
X136000000Y-72100000D02*
G01*
X140800000Y-72100000D01*
X140800000Y-69700000D01*
X136000000Y-69700000D01*
X136000000Y-72100000D01*
G37*
X176400000Y-111700000D02*
X171700000Y-111700000D01*
X171700000Y-111700000D02*
X171700000Y-114100000D01*
X171700000Y-114100000D02*
X176400000Y-114100000D01*
X176400000Y-114100000D02*
X176400000Y-111700000D01*
G36*
X176400000Y-111700000D02*
G01*
X171700000Y-111700000D01*
X171700000Y-114100000D01*
X176400000Y-114100000D01*
X176400000Y-111700000D01*
G37*
X171600000Y-72100000D02*
X176400000Y-72100000D01*
X176400000Y-72100000D02*
X176400000Y-69700000D01*
X176400000Y-69700000D02*
X171600000Y-69700000D01*
X171600000Y-69700000D02*
X171600000Y-72100000D01*
G36*
X171600000Y-72100000D02*
G01*
X176400000Y-72100000D01*
X176400000Y-69700000D01*
X171600000Y-69700000D01*
X171600000Y-72100000D01*
G37*
X140750000Y-100100000D02*
X136050000Y-100100000D01*
X136050000Y-100100000D02*
X136050000Y-102500000D01*
X136050000Y-102500000D02*
X140750000Y-102500000D01*
X140750000Y-102500000D02*
X140750000Y-100100000D01*
G36*
X140750000Y-100100000D02*
G01*
X136050000Y-100100000D01*
X136050000Y-102500000D01*
X140750000Y-102500000D01*
X140750000Y-100100000D01*
G37*
X176350000Y-92900000D02*
X171650000Y-92900000D01*
X171650000Y-92900000D02*
X171650000Y-95300000D01*
X171650000Y-95300000D02*
X176350000Y-95300000D01*
X176350000Y-95300000D02*
X176350000Y-92900000D01*
G36*
X176350000Y-92900000D02*
G01*
X171650000Y-92900000D01*
X171650000Y-95300000D01*
X176350000Y-95300000D01*
X176350000Y-92900000D01*
G37*
X140750000Y-111700000D02*
X136050000Y-111700000D01*
X136050000Y-111700000D02*
X136050000Y-114100000D01*
X136050000Y-114100000D02*
X140750000Y-114100000D01*
X140750000Y-114100000D02*
X140750000Y-111700000D01*
G36*
X140750000Y-111700000D02*
G01*
X136050000Y-111700000D01*
X136050000Y-114100000D01*
X140750000Y-114100000D01*
X140750000Y-111700000D01*
G37*
X136000000Y-67700000D02*
X140800000Y-67700000D01*
X140800000Y-67700000D02*
X140800000Y-65300000D01*
X140800000Y-65300000D02*
X136000000Y-65300000D01*
X136000000Y-65300000D02*
X136000000Y-67700000D01*
G36*
X136000000Y-67700000D02*
G01*
X140800000Y-67700000D01*
X140800000Y-65300000D01*
X136000000Y-65300000D01*
X136000000Y-67700000D01*
G37*
X171600000Y-60500000D02*
X176400000Y-60500000D01*
X176400000Y-60500000D02*
X176400000Y-58100000D01*
X176400000Y-58100000D02*
X171600000Y-58100000D01*
X171600000Y-58100000D02*
X171600000Y-60500000D01*
G36*
X171600000Y-60500000D02*
G01*
X176400000Y-60500000D01*
X176400000Y-58100000D01*
X171600000Y-58100000D01*
X171600000Y-60500000D01*
G37*
X140800000Y-81300000D02*
X136000000Y-81300000D01*
X136000000Y-81300000D02*
X136000000Y-83700000D01*
X136000000Y-83700000D02*
X140800000Y-83700000D01*
X140800000Y-83700000D02*
X140800000Y-81300000D01*
G36*
X140800000Y-81300000D02*
G01*
X136000000Y-81300000D01*
X136000000Y-83700000D01*
X140800000Y-83700000D01*
X140800000Y-81300000D01*
G37*
X176350000Y-104500000D02*
X171650000Y-104500000D01*
X171650000Y-104500000D02*
X171650000Y-106900000D01*
X171650000Y-106900000D02*
X176350000Y-106900000D01*
X176350000Y-106900000D02*
X176350000Y-104500000D01*
G36*
X176350000Y-104500000D02*
G01*
X171650000Y-104500000D01*
X171650000Y-106900000D01*
X176350000Y-106900000D01*
X176350000Y-104500000D01*
G37*
X140750000Y-92900000D02*
X136050000Y-92900000D01*
X136050000Y-92900000D02*
X136050000Y-95300000D01*
X136050000Y-95300000D02*
X140750000Y-95300000D01*
X140750000Y-95300000D02*
X140750000Y-92900000D01*
G36*
X140750000Y-92900000D02*
G01*
X136050000Y-92900000D01*
X136050000Y-95300000D01*
X140750000Y-95300000D01*
X140750000Y-92900000D01*
G37*
D11*
%TO.C,J6*%
X174400000Y-86100000D03*
D12*
X174400000Y-83110000D03*
X174400000Y-89080000D03*
%TD*%
D11*
%TO.C,J3*%
X138000000Y-74500000D03*
D12*
X138000000Y-77490000D03*
X138000000Y-71520000D03*
%TD*%
D11*
%TO.C,J4*%
X174404250Y-74500000D03*
D12*
X174404250Y-71510000D03*
X174404250Y-77480000D03*
%TD*%
D11*
%TO.C,J7*%
X138006757Y-97700000D03*
D12*
X138006757Y-100690000D03*
X138006757Y-94720000D03*
%TD*%
D11*
%TO.C,J1*%
X138000000Y-62900000D03*
D12*
X138000000Y-65890000D03*
X138000000Y-59920000D03*
%TD*%
D11*
%TO.C,J8*%
X174406757Y-97700000D03*
D12*
X174406757Y-94710000D03*
X174406757Y-100680000D03*
%TD*%
D11*
%TO.C,J2*%
X174400000Y-62900000D03*
D12*
X174400000Y-59910000D03*
X174400000Y-65880000D03*
%TD*%
D11*
%TO.C,J5*%
X138000000Y-86100000D03*
D12*
X138000000Y-89090000D03*
X138000000Y-83120000D03*
%TD*%
D11*
%TO.C,J10*%
X174400000Y-109300000D03*
D12*
X174400000Y-106310000D03*
X174400000Y-112280000D03*
%TD*%
D11*
%TO.C,J9*%
X138000000Y-109300000D03*
D12*
X138000000Y-112290000D03*
X138000000Y-106320000D03*
%TD*%
D13*
%TO.C,NT5*%
X156220000Y-109300000D03*
D14*
X158427500Y-110076000D03*
X169866200Y-108524000D03*
X165466700Y-108524000D03*
X153148100Y-108524000D03*
X166346600Y-110076000D03*
X151388300Y-110076000D03*
X165466700Y-110076000D03*
X160187300Y-110076000D03*
X152268200Y-110076000D03*
X168986300Y-110076000D03*
X161947100Y-108524000D03*
X162827000Y-108524000D03*
X170746100Y-110076000D03*
X155787800Y-108524000D03*
X159307400Y-110076000D03*
X149628500Y-108524000D03*
X141709400Y-110076000D03*
X142589300Y-110076000D03*
X150508400Y-108524000D03*
X158427500Y-108524000D03*
X147868700Y-110076000D03*
X154907900Y-108524000D03*
X155787800Y-110076000D03*
X142589300Y-108524000D03*
X148748600Y-110076000D03*
X147868700Y-108524000D03*
X156667700Y-108524000D03*
X150508400Y-110076000D03*
X144349100Y-110076000D03*
X171626000Y-108524000D03*
X160187300Y-108524000D03*
X149628500Y-110076000D03*
X157547600Y-110076000D03*
X146988800Y-108524000D03*
X140829500Y-110076000D03*
X168986300Y-108524000D03*
X169866200Y-110076000D03*
X161067200Y-110076000D03*
X171626000Y-110076000D03*
X143469200Y-110076000D03*
X143469200Y-108524000D03*
X159307400Y-108524000D03*
X161067200Y-108524000D03*
X168106400Y-110076000D03*
X144349100Y-108524000D03*
X164586800Y-108524000D03*
X154028000Y-108524000D03*
X154028000Y-110076000D03*
X161947100Y-110076000D03*
X162827000Y-110076000D03*
X146988800Y-110076000D03*
X146108900Y-110076000D03*
X170746100Y-108524000D03*
X156667700Y-110076000D03*
X153148100Y-110076000D03*
X167226500Y-110076000D03*
X151388300Y-108524000D03*
X166346600Y-108524000D03*
X168106400Y-108524000D03*
X157547600Y-108524000D03*
X148748600Y-108524000D03*
X163706900Y-110076000D03*
X140829500Y-108524000D03*
X146108900Y-108524000D03*
X154907900Y-110076000D03*
X145229000Y-110076000D03*
X164586800Y-110076000D03*
X152268200Y-108524000D03*
X167226500Y-108524000D03*
X141709400Y-108524000D03*
X145229000Y-108524000D03*
X163706900Y-108524000D03*
%TD*%
D15*
%TO.C,NT4*%
X156206757Y-97700000D03*
%TD*%
M02*
