%FSLAX45Y45*%
G04 Gerber Fmt 4.5, Leading zero omitted, Abs format (unit mm)*
G04 Created by KiCad (PCBNEW (6.0.2)) date 2022-07-21 18:21:14*
%MOMM*%
%LPD*%
G01*
G04 APERTURE LIST*
%TA.AperFunction,Profile*%
%ADD10C,0.100000*%
%TD*%
%ADD11C,0.200000*%
%ADD12C,0.025000*%
%ADD13C,0.040000*%
G04 APERTURE END LIST*
D10*
X13530000Y-11460000D02*
X17710000Y-11460000D01*
X17710000Y-11460000D02*
X17710000Y-5760000D01*
X17710000Y-5760000D02*
X13530000Y-5760000D01*
X13530000Y-5760000D02*
X13530000Y-11460000D01*
D11*
D12*
X14070450Y-10839900D02*
X14095450Y-10864900D01*
X14095450Y-10839900D02*
X14070450Y-10864900D01*
X14070450Y-10995100D02*
X14095450Y-11020100D01*
X14095450Y-10995100D02*
X14070450Y-11020100D01*
X14158440Y-10839900D02*
X14183440Y-10864900D01*
X14183440Y-10839900D02*
X14158440Y-10864900D01*
X14158440Y-10995100D02*
X14183440Y-11020100D01*
X14183440Y-10995100D02*
X14158440Y-11020100D01*
X14246430Y-10839900D02*
X14271430Y-10864900D01*
X14271430Y-10839900D02*
X14246430Y-10864900D01*
X14246430Y-10995100D02*
X14271430Y-11020100D01*
X14271430Y-10995100D02*
X14246430Y-11020100D01*
X14334420Y-10839900D02*
X14359420Y-10864900D01*
X14359420Y-10839900D02*
X14334420Y-10864900D01*
X14334420Y-10995100D02*
X14359420Y-11020100D01*
X14359420Y-10995100D02*
X14334420Y-11020100D01*
X14422410Y-10839900D02*
X14447410Y-10864900D01*
X14447410Y-10839900D02*
X14422410Y-10864900D01*
X14422410Y-10995100D02*
X14447410Y-11020100D01*
X14447410Y-10995100D02*
X14422410Y-11020100D01*
X14510400Y-10839900D02*
X14535400Y-10864900D01*
X14535400Y-10839900D02*
X14510400Y-10864900D01*
X14510400Y-10995100D02*
X14535400Y-11020100D01*
X14535400Y-10995100D02*
X14510400Y-11020100D01*
X14598390Y-10839900D02*
X14623390Y-10864900D01*
X14623390Y-10839900D02*
X14598390Y-10864900D01*
X14598390Y-10995100D02*
X14623390Y-11020100D01*
X14623390Y-10995100D02*
X14598390Y-11020100D01*
X14686380Y-10839900D02*
X14711380Y-10864900D01*
X14711380Y-10839900D02*
X14686380Y-10864900D01*
X14686380Y-10995100D02*
X14711380Y-11020100D01*
X14711380Y-10995100D02*
X14686380Y-11020100D01*
X14774370Y-10839900D02*
X14799370Y-10864900D01*
X14799370Y-10839900D02*
X14774370Y-10864900D01*
X14774370Y-10995100D02*
X14799370Y-11020100D01*
X14799370Y-10995100D02*
X14774370Y-11020100D01*
X14862360Y-10839900D02*
X14887360Y-10864900D01*
X14887360Y-10839900D02*
X14862360Y-10864900D01*
X14862360Y-10995100D02*
X14887360Y-11020100D01*
X14887360Y-10995100D02*
X14862360Y-11020100D01*
X14950350Y-10839900D02*
X14975350Y-10864900D01*
X14975350Y-10839900D02*
X14950350Y-10864900D01*
X14950350Y-10995100D02*
X14975350Y-11020100D01*
X14975350Y-10995100D02*
X14950350Y-11020100D01*
X15038340Y-10839900D02*
X15063340Y-10864900D01*
X15063340Y-10839900D02*
X15038340Y-10864900D01*
X15038340Y-10995100D02*
X15063340Y-11020100D01*
X15063340Y-10995100D02*
X15038340Y-11020100D01*
X15126330Y-10839900D02*
X15151330Y-10864900D01*
X15151330Y-10839900D02*
X15126330Y-10864900D01*
X15126330Y-10995100D02*
X15151330Y-11020100D01*
X15151330Y-10995100D02*
X15126330Y-11020100D01*
X15214320Y-10839900D02*
X15239320Y-10864900D01*
X15239320Y-10839900D02*
X15214320Y-10864900D01*
X15214320Y-10995100D02*
X15239320Y-11020100D01*
X15239320Y-10995100D02*
X15214320Y-11020100D01*
X15302310Y-10839900D02*
X15327310Y-10864900D01*
X15327310Y-10839900D02*
X15302310Y-10864900D01*
X15302310Y-10995100D02*
X15327310Y-11020100D01*
X15327310Y-10995100D02*
X15302310Y-11020100D01*
X15390300Y-10839900D02*
X15415300Y-10864900D01*
X15415300Y-10839900D02*
X15390300Y-10864900D01*
X15390300Y-10995100D02*
X15415300Y-11020100D01*
X15415300Y-10995100D02*
X15390300Y-11020100D01*
X15478290Y-10839900D02*
X15503290Y-10864900D01*
X15503290Y-10839900D02*
X15478290Y-10864900D01*
X15478290Y-10995100D02*
X15503290Y-11020100D01*
X15503290Y-10995100D02*
X15478290Y-11020100D01*
X15566280Y-10839900D02*
X15591280Y-10864900D01*
X15591280Y-10839900D02*
X15566280Y-10864900D01*
X15566280Y-10995100D02*
X15591280Y-11020100D01*
X15591280Y-10995100D02*
X15566280Y-11020100D01*
X15654270Y-10839900D02*
X15679270Y-10864900D01*
X15679270Y-10839900D02*
X15654270Y-10864900D01*
X15654270Y-10995100D02*
X15679270Y-11020100D01*
X15679270Y-10995100D02*
X15654270Y-11020100D01*
X15742260Y-10839900D02*
X15767260Y-10864900D01*
X15767260Y-10839900D02*
X15742260Y-10864900D01*
X15742260Y-10995100D02*
X15767260Y-11020100D01*
X15767260Y-10995100D02*
X15742260Y-11020100D01*
X15830250Y-10839900D02*
X15855250Y-10864900D01*
X15855250Y-10839900D02*
X15830250Y-10864900D01*
X15830250Y-10995100D02*
X15855250Y-11020100D01*
X15855250Y-10995100D02*
X15830250Y-11020100D01*
X15918240Y-10839900D02*
X15943240Y-10864900D01*
X15943240Y-10839900D02*
X15918240Y-10864900D01*
X15918240Y-10995100D02*
X15943240Y-11020100D01*
X15943240Y-10995100D02*
X15918240Y-11020100D01*
X16006230Y-10839900D02*
X16031230Y-10864900D01*
X16031230Y-10839900D02*
X16006230Y-10864900D01*
X16006230Y-10995100D02*
X16031230Y-11020100D01*
X16031230Y-10995100D02*
X16006230Y-11020100D01*
X16094220Y-10839900D02*
X16119220Y-10864900D01*
X16119220Y-10839900D02*
X16094220Y-10864900D01*
X16094220Y-10995100D02*
X16119220Y-11020100D01*
X16119220Y-10995100D02*
X16094220Y-11020100D01*
X16182210Y-10839900D02*
X16207210Y-10864900D01*
X16207210Y-10839900D02*
X16182210Y-10864900D01*
X16182210Y-10995100D02*
X16207210Y-11020100D01*
X16207210Y-10995100D02*
X16182210Y-11020100D01*
X16270200Y-10839900D02*
X16295200Y-10864900D01*
X16295200Y-10839900D02*
X16270200Y-10864900D01*
X16270200Y-10995100D02*
X16295200Y-11020100D01*
X16295200Y-10995100D02*
X16270200Y-11020100D01*
X16358190Y-10839900D02*
X16383190Y-10864900D01*
X16383190Y-10839900D02*
X16358190Y-10864900D01*
X16358190Y-10995100D02*
X16383190Y-11020100D01*
X16383190Y-10995100D02*
X16358190Y-11020100D01*
X16446180Y-10839900D02*
X16471180Y-10864900D01*
X16471180Y-10839900D02*
X16446180Y-10864900D01*
X16446180Y-10995100D02*
X16471180Y-11020100D01*
X16471180Y-10995100D02*
X16446180Y-11020100D01*
X16534170Y-10839900D02*
X16559170Y-10864900D01*
X16559170Y-10839900D02*
X16534170Y-10864900D01*
X16534170Y-10995100D02*
X16559170Y-11020100D01*
X16559170Y-10995100D02*
X16534170Y-11020100D01*
X16622160Y-10839900D02*
X16647160Y-10864900D01*
X16647160Y-10839900D02*
X16622160Y-10864900D01*
X16622160Y-10995100D02*
X16647160Y-11020100D01*
X16647160Y-10995100D02*
X16622160Y-11020100D01*
X16710150Y-10839900D02*
X16735150Y-10864900D01*
X16735150Y-10839900D02*
X16710150Y-10864900D01*
X16710150Y-10995100D02*
X16735150Y-11020100D01*
X16735150Y-10995100D02*
X16710150Y-11020100D01*
X16798140Y-10839900D02*
X16823140Y-10864900D01*
X16823140Y-10839900D02*
X16798140Y-10864900D01*
X16798140Y-10995100D02*
X16823140Y-11020100D01*
X16823140Y-10995100D02*
X16798140Y-11020100D01*
X16886130Y-10839900D02*
X16911130Y-10864900D01*
X16911130Y-10839900D02*
X16886130Y-10864900D01*
X16886130Y-10995100D02*
X16911130Y-11020100D01*
X16911130Y-10995100D02*
X16886130Y-11020100D01*
X16974120Y-10839900D02*
X16999120Y-10864900D01*
X16999120Y-10839900D02*
X16974120Y-10864900D01*
X16974120Y-10995100D02*
X16999120Y-11020100D01*
X16999120Y-10995100D02*
X16974120Y-11020100D01*
X17062110Y-10839900D02*
X17087110Y-10864900D01*
X17087110Y-10839900D02*
X17062110Y-10864900D01*
X17062110Y-10995100D02*
X17087110Y-11020100D01*
X17087110Y-10995100D02*
X17062110Y-11020100D01*
X17150100Y-10839900D02*
X17175100Y-10864900D01*
X17175100Y-10839900D02*
X17150100Y-10864900D01*
X17150100Y-10995100D02*
X17175100Y-11020100D01*
X17175100Y-10995100D02*
X17150100Y-11020100D01*
D13*
X13600000Y-6870000D02*
G75*
G03*
X13600000Y-6870000I-20000J0D01*
G01*
X13600000Y-8030000D02*
G75*
G03*
X13600000Y-8030000I-20000J0D01*
G01*
X13600000Y-9190000D02*
G75*
G03*
X13600000Y-9190000I-20000J0D01*
G01*
X13600000Y-10350000D02*
G75*
G03*
X13600000Y-10350000I-20000J0D01*
G01*
X13763200Y-6870000D02*
G75*
G03*
X13763200Y-6870000I-20000J0D01*
G01*
X13763200Y-8030000D02*
G75*
G03*
X13763200Y-8030000I-20000J0D01*
G01*
X13763200Y-9190000D02*
G75*
G03*
X13763200Y-9190000I-20000J0D01*
G01*
X13763200Y-10350000D02*
G75*
G03*
X13763200Y-10350000I-20000J0D01*
G01*
X13926400Y-6870000D02*
G75*
G03*
X13926400Y-6870000I-20000J0D01*
G01*
X13926400Y-8030000D02*
G75*
G03*
X13926400Y-8030000I-20000J0D01*
G01*
X13926400Y-9190000D02*
G75*
G03*
X13926400Y-9190000I-20000J0D01*
G01*
X13926400Y-10350000D02*
G75*
G03*
X13926400Y-10350000I-20000J0D01*
G01*
X14089600Y-6870000D02*
G75*
G03*
X14089600Y-6870000I-20000J0D01*
G01*
X14089600Y-8030000D02*
G75*
G03*
X14089600Y-8030000I-20000J0D01*
G01*
X14089600Y-9190000D02*
G75*
G03*
X14089600Y-9190000I-20000J0D01*
G01*
X14089600Y-10350000D02*
G75*
G03*
X14089600Y-10350000I-20000J0D01*
G01*
X14252800Y-6870000D02*
G75*
G03*
X14252800Y-6870000I-20000J0D01*
G01*
X14252800Y-8030000D02*
G75*
G03*
X14252800Y-8030000I-20000J0D01*
G01*
X14252800Y-9190000D02*
G75*
G03*
X14252800Y-9190000I-20000J0D01*
G01*
X14252800Y-10350000D02*
G75*
G03*
X14252800Y-10350000I-20000J0D01*
G01*
X14416000Y-6870000D02*
G75*
G03*
X14416000Y-6870000I-20000J0D01*
G01*
X14416000Y-8030000D02*
G75*
G03*
X14416000Y-8030000I-20000J0D01*
G01*
X14416000Y-9190000D02*
G75*
G03*
X14416000Y-9190000I-20000J0D01*
G01*
X14416000Y-10350000D02*
G75*
G03*
X14416000Y-10350000I-20000J0D01*
G01*
X14579200Y-6870000D02*
G75*
G03*
X14579200Y-6870000I-20000J0D01*
G01*
X14579200Y-8030000D02*
G75*
G03*
X14579200Y-8030000I-20000J0D01*
G01*
X14579200Y-9190000D02*
G75*
G03*
X14579200Y-9190000I-20000J0D01*
G01*
X14579200Y-10350000D02*
G75*
G03*
X14579200Y-10350000I-20000J0D01*
G01*
X14742400Y-6870000D02*
G75*
G03*
X14742400Y-6870000I-20000J0D01*
G01*
X14742400Y-8030000D02*
G75*
G03*
X14742400Y-8030000I-20000J0D01*
G01*
X14742400Y-9190000D02*
G75*
G03*
X14742400Y-9190000I-20000J0D01*
G01*
X14742400Y-10350000D02*
G75*
G03*
X14742400Y-10350000I-20000J0D01*
G01*
X14905600Y-6870000D02*
G75*
G03*
X14905600Y-6870000I-20000J0D01*
G01*
X14905600Y-8030000D02*
G75*
G03*
X14905600Y-8030000I-20000J0D01*
G01*
X14905600Y-9190000D02*
G75*
G03*
X14905600Y-9190000I-20000J0D01*
G01*
X14905600Y-10350000D02*
G75*
G03*
X14905600Y-10350000I-20000J0D01*
G01*
X15068800Y-6870000D02*
G75*
G03*
X15068800Y-6870000I-20000J0D01*
G01*
X15068800Y-8030000D02*
G75*
G03*
X15068800Y-8030000I-20000J0D01*
G01*
X15068800Y-9190000D02*
G75*
G03*
X15068800Y-9190000I-20000J0D01*
G01*
X15068800Y-10350000D02*
G75*
G03*
X15068800Y-10350000I-20000J0D01*
G01*
X15232000Y-6870000D02*
G75*
G03*
X15232000Y-6870000I-20000J0D01*
G01*
X15232000Y-8030000D02*
G75*
G03*
X15232000Y-8030000I-20000J0D01*
G01*
X15232000Y-9190000D02*
G75*
G03*
X15232000Y-9190000I-20000J0D01*
G01*
X15232000Y-10350000D02*
G75*
G03*
X15232000Y-10350000I-20000J0D01*
G01*
X15395200Y-6870000D02*
G75*
G03*
X15395200Y-6870000I-20000J0D01*
G01*
X15395200Y-8030000D02*
G75*
G03*
X15395200Y-8030000I-20000J0D01*
G01*
X15395200Y-9190000D02*
G75*
G03*
X15395200Y-9190000I-20000J0D01*
G01*
X15395200Y-10350000D02*
G75*
G03*
X15395200Y-10350000I-20000J0D01*
G01*
X15558400Y-6870000D02*
G75*
G03*
X15558400Y-6870000I-20000J0D01*
G01*
X15558400Y-8030000D02*
G75*
G03*
X15558400Y-8030000I-20000J0D01*
G01*
X15558400Y-9190000D02*
G75*
G03*
X15558400Y-9190000I-20000J0D01*
G01*
X15558400Y-10350000D02*
G75*
G03*
X15558400Y-10350000I-20000J0D01*
G01*
X15721600Y-6870000D02*
G75*
G03*
X15721600Y-6870000I-20000J0D01*
G01*
X15721600Y-8030000D02*
G75*
G03*
X15721600Y-8030000I-20000J0D01*
G01*
X15721600Y-9190000D02*
G75*
G03*
X15721600Y-9190000I-20000J0D01*
G01*
X15721600Y-10350000D02*
G75*
G03*
X15721600Y-10350000I-20000J0D01*
G01*
X15884800Y-6870000D02*
G75*
G03*
X15884800Y-6870000I-20000J0D01*
G01*
X15884800Y-8030000D02*
G75*
G03*
X15884800Y-8030000I-20000J0D01*
G01*
X15884800Y-9190000D02*
G75*
G03*
X15884800Y-9190000I-20000J0D01*
G01*
X15884800Y-10350000D02*
G75*
G03*
X15884800Y-10350000I-20000J0D01*
G01*
X16048000Y-6870000D02*
G75*
G03*
X16048000Y-6870000I-20000J0D01*
G01*
X16048000Y-8030000D02*
G75*
G03*
X16048000Y-8030000I-20000J0D01*
G01*
X16048000Y-9190000D02*
G75*
G03*
X16048000Y-9190000I-20000J0D01*
G01*
X16048000Y-10350000D02*
G75*
G03*
X16048000Y-10350000I-20000J0D01*
G01*
X16211200Y-6870000D02*
G75*
G03*
X16211200Y-6870000I-20000J0D01*
G01*
X16211200Y-8030000D02*
G75*
G03*
X16211200Y-8030000I-20000J0D01*
G01*
X16211200Y-9190000D02*
G75*
G03*
X16211200Y-9190000I-20000J0D01*
G01*
X16211200Y-10350000D02*
G75*
G03*
X16211200Y-10350000I-20000J0D01*
G01*
X16374400Y-6870000D02*
G75*
G03*
X16374400Y-6870000I-20000J0D01*
G01*
X16374400Y-8030000D02*
G75*
G03*
X16374400Y-8030000I-20000J0D01*
G01*
X16374400Y-9190000D02*
G75*
G03*
X16374400Y-9190000I-20000J0D01*
G01*
X16374400Y-10350000D02*
G75*
G03*
X16374400Y-10350000I-20000J0D01*
G01*
X16537600Y-6870000D02*
G75*
G03*
X16537600Y-6870000I-20000J0D01*
G01*
X16537600Y-8030000D02*
G75*
G03*
X16537600Y-8030000I-20000J0D01*
G01*
X16537600Y-9190000D02*
G75*
G03*
X16537600Y-9190000I-20000J0D01*
G01*
X16537600Y-10350000D02*
G75*
G03*
X16537600Y-10350000I-20000J0D01*
G01*
X16700800Y-6870000D02*
G75*
G03*
X16700800Y-6870000I-20000J0D01*
G01*
X16700800Y-8030000D02*
G75*
G03*
X16700800Y-8030000I-20000J0D01*
G01*
X16700800Y-9190000D02*
G75*
G03*
X16700800Y-9190000I-20000J0D01*
G01*
X16700800Y-10350000D02*
G75*
G03*
X16700800Y-10350000I-20000J0D01*
G01*
X16864000Y-6870000D02*
G75*
G03*
X16864000Y-6870000I-20000J0D01*
G01*
X16864000Y-8030000D02*
G75*
G03*
X16864000Y-8030000I-20000J0D01*
G01*
X16864000Y-9190000D02*
G75*
G03*
X16864000Y-9190000I-20000J0D01*
G01*
X16864000Y-10350000D02*
G75*
G03*
X16864000Y-10350000I-20000J0D01*
G01*
X17027200Y-6870000D02*
G75*
G03*
X17027200Y-6870000I-20000J0D01*
G01*
X17027200Y-8030000D02*
G75*
G03*
X17027200Y-8030000I-20000J0D01*
G01*
X17027200Y-9190000D02*
G75*
G03*
X17027200Y-9190000I-20000J0D01*
G01*
X17027200Y-10350000D02*
G75*
G03*
X17027200Y-10350000I-20000J0D01*
G01*
X17190400Y-6870000D02*
G75*
G03*
X17190400Y-6870000I-20000J0D01*
G01*
X17190400Y-8030000D02*
G75*
G03*
X17190400Y-8030000I-20000J0D01*
G01*
X17190400Y-9190000D02*
G75*
G03*
X17190400Y-9190000I-20000J0D01*
G01*
X17190400Y-10350000D02*
G75*
G03*
X17190400Y-10350000I-20000J0D01*
G01*
X17353600Y-6870000D02*
G75*
G03*
X17353600Y-6870000I-20000J0D01*
G01*
X17353600Y-8030000D02*
G75*
G03*
X17353600Y-8030000I-20000J0D01*
G01*
X17353600Y-9190000D02*
G75*
G03*
X17353600Y-9190000I-20000J0D01*
G01*
X17353600Y-10350000D02*
G75*
G03*
X17353600Y-10350000I-20000J0D01*
G01*
X17516800Y-6870000D02*
G75*
G03*
X17516800Y-6870000I-20000J0D01*
G01*
X17516800Y-8030000D02*
G75*
G03*
X17516800Y-8030000I-20000J0D01*
G01*
X17516800Y-9190000D02*
G75*
G03*
X17516800Y-9190000I-20000J0D01*
G01*
X17516800Y-10350000D02*
G75*
G03*
X17516800Y-10350000I-20000J0D01*
G01*
X17680000Y-6870000D02*
G75*
G03*
X17680000Y-6870000I-20000J0D01*
G01*
X17680000Y-8030000D02*
G75*
G03*
X17680000Y-8030000I-20000J0D01*
G01*
X17680000Y-9190000D02*
G75*
G03*
X17680000Y-9190000I-20000J0D01*
G01*
X17680000Y-10350000D02*
G75*
G03*
X17680000Y-10350000I-20000J0D01*
G01*
D11*
X13782619Y-11775476D02*
X13782619Y-11575476D01*
X13830238Y-11575476D01*
X13858809Y-11585000D01*
X13877857Y-11604048D01*
X13887381Y-11623095D01*
X13896905Y-11661190D01*
X13896905Y-11689762D01*
X13887381Y-11727857D01*
X13877857Y-11746905D01*
X13858809Y-11765952D01*
X13830238Y-11775476D01*
X13782619Y-11775476D01*
X13982619Y-11775476D02*
X13982619Y-11642143D01*
X13982619Y-11680238D02*
X13992143Y-11661190D01*
X14001667Y-11651667D01*
X14020714Y-11642143D01*
X14039762Y-11642143D01*
X14106428Y-11775476D02*
X14106428Y-11642143D01*
X14106428Y-11575476D02*
X14096905Y-11585000D01*
X14106428Y-11594524D01*
X14115952Y-11585000D01*
X14106428Y-11575476D01*
X14106428Y-11594524D01*
X14230238Y-11775476D02*
X14211190Y-11765952D01*
X14201667Y-11746905D01*
X14201667Y-11575476D01*
X14335000Y-11775476D02*
X14315952Y-11765952D01*
X14306428Y-11746905D01*
X14306428Y-11575476D01*
X14563571Y-11775476D02*
X14563571Y-11575476D01*
X14630238Y-11718333D01*
X14696905Y-11575476D01*
X14696905Y-11775476D01*
X14877857Y-11775476D02*
X14877857Y-11670714D01*
X14868333Y-11651667D01*
X14849286Y-11642143D01*
X14811190Y-11642143D01*
X14792143Y-11651667D01*
X14877857Y-11765952D02*
X14858809Y-11775476D01*
X14811190Y-11775476D01*
X14792143Y-11765952D01*
X14782619Y-11746905D01*
X14782619Y-11727857D01*
X14792143Y-11708809D01*
X14811190Y-11699286D01*
X14858809Y-11699286D01*
X14877857Y-11689762D01*
X14973095Y-11642143D02*
X14973095Y-11842143D01*
X14973095Y-11651667D02*
X14992143Y-11642143D01*
X15030238Y-11642143D01*
X15049286Y-11651667D01*
X15058809Y-11661190D01*
X15068333Y-11680238D01*
X15068333Y-11737381D01*
X15058809Y-11756428D01*
X15049286Y-11765952D01*
X15030238Y-11775476D01*
X14992143Y-11775476D01*
X14973095Y-11765952D01*
X15154048Y-11756428D02*
X15163571Y-11765952D01*
X15154048Y-11775476D01*
X15144524Y-11765952D01*
X15154048Y-11756428D01*
X15154048Y-11775476D01*
X15154048Y-11651667D02*
X15163571Y-11661190D01*
X15154048Y-11670714D01*
X15144524Y-11661190D01*
X15154048Y-11651667D01*
X15154048Y-11670714D01*
D12*
X13500000Y-12092500D02*
X13525000Y-12117500D01*
X13525000Y-12092500D02*
X13500000Y-12117500D01*
D11*
X13820714Y-11995476D02*
X13839762Y-11995476D01*
X13858809Y-12005000D01*
X13868333Y-12014524D01*
X13877857Y-12033571D01*
X13887381Y-12071667D01*
X13887381Y-12119286D01*
X13877857Y-12157381D01*
X13868333Y-12176428D01*
X13858809Y-12185952D01*
X13839762Y-12195476D01*
X13820714Y-12195476D01*
X13801667Y-12185952D01*
X13792143Y-12176428D01*
X13782619Y-12157381D01*
X13773095Y-12119286D01*
X13773095Y-12071667D01*
X13782619Y-12033571D01*
X13792143Y-12014524D01*
X13801667Y-12005000D01*
X13820714Y-11995476D01*
X13973095Y-12176428D02*
X13982619Y-12185952D01*
X13973095Y-12195476D01*
X13963571Y-12185952D01*
X13973095Y-12176428D01*
X13973095Y-12195476D01*
X14058809Y-12014524D02*
X14068333Y-12005000D01*
X14087381Y-11995476D01*
X14135000Y-11995476D01*
X14154048Y-12005000D01*
X14163571Y-12014524D01*
X14173095Y-12033571D01*
X14173095Y-12052619D01*
X14163571Y-12081190D01*
X14049286Y-12195476D01*
X14173095Y-12195476D01*
X14354048Y-11995476D02*
X14258809Y-11995476D01*
X14249286Y-12090714D01*
X14258809Y-12081190D01*
X14277857Y-12071667D01*
X14325476Y-12071667D01*
X14344524Y-12081190D01*
X14354048Y-12090714D01*
X14363571Y-12109762D01*
X14363571Y-12157381D01*
X14354048Y-12176428D01*
X14344524Y-12185952D01*
X14325476Y-12195476D01*
X14277857Y-12195476D01*
X14258809Y-12185952D01*
X14249286Y-12176428D01*
X14487381Y-11995476D02*
X14506428Y-11995476D01*
X14525476Y-12005000D01*
X14535000Y-12014524D01*
X14544524Y-12033571D01*
X14554048Y-12071667D01*
X14554048Y-12119286D01*
X14544524Y-12157381D01*
X14535000Y-12176428D01*
X14525476Y-12185952D01*
X14506428Y-12195476D01*
X14487381Y-12195476D01*
X14468333Y-12185952D01*
X14458809Y-12176428D01*
X14449286Y-12157381D01*
X14439762Y-12119286D01*
X14439762Y-12071667D01*
X14449286Y-12033571D01*
X14458809Y-12014524D01*
X14468333Y-12005000D01*
X14487381Y-11995476D01*
X14639762Y-12195476D02*
X14639762Y-12062143D01*
X14639762Y-12081190D02*
X14649286Y-12071667D01*
X14668333Y-12062143D01*
X14696905Y-12062143D01*
X14715952Y-12071667D01*
X14725476Y-12090714D01*
X14725476Y-12195476D01*
X14725476Y-12090714D02*
X14735000Y-12071667D01*
X14754048Y-12062143D01*
X14782619Y-12062143D01*
X14801667Y-12071667D01*
X14811190Y-12090714D01*
X14811190Y-12195476D01*
X14906428Y-12195476D02*
X14906428Y-12062143D01*
X14906428Y-12081190D02*
X14915952Y-12071667D01*
X14935000Y-12062143D01*
X14963571Y-12062143D01*
X14982619Y-12071667D01*
X14992143Y-12090714D01*
X14992143Y-12195476D01*
X14992143Y-12090714D02*
X15001667Y-12071667D01*
X15020714Y-12062143D01*
X15049286Y-12062143D01*
X15068333Y-12071667D01*
X15077857Y-12090714D01*
X15077857Y-12195476D01*
X15468333Y-11985952D02*
X15296905Y-12243095D01*
X15725476Y-11995476D02*
X15744524Y-11995476D01*
X15763571Y-12005000D01*
X15773095Y-12014524D01*
X15782619Y-12033571D01*
X15792143Y-12071667D01*
X15792143Y-12119286D01*
X15782619Y-12157381D01*
X15773095Y-12176428D01*
X15763571Y-12185952D01*
X15744524Y-12195476D01*
X15725476Y-12195476D01*
X15706428Y-12185952D01*
X15696905Y-12176428D01*
X15687381Y-12157381D01*
X15677857Y-12119286D01*
X15677857Y-12071667D01*
X15687381Y-12033571D01*
X15696905Y-12014524D01*
X15706428Y-12005000D01*
X15725476Y-11995476D01*
X15877857Y-12176428D02*
X15887381Y-12185952D01*
X15877857Y-12195476D01*
X15868333Y-12185952D01*
X15877857Y-12176428D01*
X15877857Y-12195476D01*
X16011190Y-11995476D02*
X16030238Y-11995476D01*
X16049286Y-12005000D01*
X16058809Y-12014524D01*
X16068333Y-12033571D01*
X16077857Y-12071667D01*
X16077857Y-12119286D01*
X16068333Y-12157381D01*
X16058809Y-12176428D01*
X16049286Y-12185952D01*
X16030238Y-12195476D01*
X16011190Y-12195476D01*
X15992143Y-12185952D01*
X15982619Y-12176428D01*
X15973095Y-12157381D01*
X15963571Y-12119286D01*
X15963571Y-12071667D01*
X15973095Y-12033571D01*
X15982619Y-12014524D01*
X15992143Y-12005000D01*
X16011190Y-11995476D01*
X16201667Y-11995476D02*
X16220714Y-11995476D01*
X16239762Y-12005000D01*
X16249286Y-12014524D01*
X16258809Y-12033571D01*
X16268333Y-12071667D01*
X16268333Y-12119286D01*
X16258809Y-12157381D01*
X16249286Y-12176428D01*
X16239762Y-12185952D01*
X16220714Y-12195476D01*
X16201667Y-12195476D01*
X16182619Y-12185952D01*
X16173095Y-12176428D01*
X16163571Y-12157381D01*
X16154048Y-12119286D01*
X16154048Y-12071667D01*
X16163571Y-12033571D01*
X16173095Y-12014524D01*
X16182619Y-12005000D01*
X16201667Y-11995476D01*
X16363571Y-12195476D02*
X16401667Y-12195476D01*
X16420714Y-12185952D01*
X16430238Y-12176428D01*
X16449286Y-12147857D01*
X16458809Y-12109762D01*
X16458809Y-12033571D01*
X16449286Y-12014524D01*
X16439762Y-12005000D01*
X16420714Y-11995476D01*
X16382619Y-11995476D01*
X16363571Y-12005000D01*
X16354048Y-12014524D01*
X16344524Y-12033571D01*
X16344524Y-12081190D01*
X16354048Y-12100238D01*
X16363571Y-12109762D01*
X16382619Y-12119286D01*
X16420714Y-12119286D01*
X16439762Y-12109762D01*
X16449286Y-12100238D01*
X16458809Y-12081190D01*
X16573095Y-12081190D02*
X16554048Y-12071667D01*
X16544524Y-12062143D01*
X16535000Y-12043095D01*
X16535000Y-12033571D01*
X16544524Y-12014524D01*
X16554048Y-12005000D01*
X16573095Y-11995476D01*
X16611190Y-11995476D01*
X16630238Y-12005000D01*
X16639762Y-12014524D01*
X16649286Y-12033571D01*
X16649286Y-12043095D01*
X16639762Y-12062143D01*
X16630238Y-12071667D01*
X16611190Y-12081190D01*
X16573095Y-12081190D01*
X16554048Y-12090714D01*
X16544524Y-12100238D01*
X16535000Y-12119286D01*
X16535000Y-12157381D01*
X16544524Y-12176428D01*
X16554048Y-12185952D01*
X16573095Y-12195476D01*
X16611190Y-12195476D01*
X16630238Y-12185952D01*
X16639762Y-12176428D01*
X16649286Y-12157381D01*
X16649286Y-12119286D01*
X16639762Y-12100238D01*
X16630238Y-12090714D01*
X16611190Y-12081190D01*
X16725476Y-11995476D02*
X16725476Y-12033571D01*
X16801667Y-11995476D02*
X16801667Y-12033571D01*
X17096905Y-12271667D02*
X17087381Y-12262143D01*
X17068333Y-12233571D01*
X17058810Y-12214524D01*
X17049286Y-12185952D01*
X17039762Y-12138333D01*
X17039762Y-12100238D01*
X17049286Y-12052619D01*
X17058810Y-12024048D01*
X17068333Y-12005000D01*
X17087381Y-11976428D01*
X17096905Y-11966905D01*
X17154048Y-11995476D02*
X17287381Y-11995476D01*
X17201667Y-12195476D01*
X17354048Y-12014524D02*
X17363571Y-12005000D01*
X17382619Y-11995476D01*
X17430238Y-11995476D01*
X17449286Y-12005000D01*
X17458810Y-12014524D01*
X17468333Y-12033571D01*
X17468333Y-12052619D01*
X17458810Y-12081190D01*
X17344524Y-12195476D01*
X17468333Y-12195476D01*
X17706429Y-12195476D02*
X17706429Y-11995476D01*
X17792143Y-12195476D02*
X17792143Y-12090714D01*
X17782619Y-12071667D01*
X17763571Y-12062143D01*
X17735000Y-12062143D01*
X17715952Y-12071667D01*
X17706429Y-12081190D01*
X17915952Y-12195476D02*
X17896905Y-12185952D01*
X17887381Y-12176428D01*
X17877857Y-12157381D01*
X17877857Y-12100238D01*
X17887381Y-12081190D01*
X17896905Y-12071667D01*
X17915952Y-12062143D01*
X17944524Y-12062143D01*
X17963571Y-12071667D01*
X17973095Y-12081190D01*
X17982619Y-12100238D01*
X17982619Y-12157381D01*
X17973095Y-12176428D01*
X17963571Y-12185952D01*
X17944524Y-12195476D01*
X17915952Y-12195476D01*
X18096905Y-12195476D02*
X18077857Y-12185952D01*
X18068333Y-12166905D01*
X18068333Y-11995476D01*
X18249286Y-12185952D02*
X18230238Y-12195476D01*
X18192143Y-12195476D01*
X18173095Y-12185952D01*
X18163571Y-12166905D01*
X18163571Y-12090714D01*
X18173095Y-12071667D01*
X18192143Y-12062143D01*
X18230238Y-12062143D01*
X18249286Y-12071667D01*
X18258810Y-12090714D01*
X18258810Y-12109762D01*
X18163571Y-12128809D01*
X18335000Y-12185952D02*
X18354048Y-12195476D01*
X18392143Y-12195476D01*
X18411190Y-12185952D01*
X18420714Y-12166905D01*
X18420714Y-12157381D01*
X18411190Y-12138333D01*
X18392143Y-12128809D01*
X18363571Y-12128809D01*
X18344524Y-12119286D01*
X18335000Y-12100238D01*
X18335000Y-12090714D01*
X18344524Y-12071667D01*
X18363571Y-12062143D01*
X18392143Y-12062143D01*
X18411190Y-12071667D01*
X18487381Y-12271667D02*
X18496905Y-12262143D01*
X18515952Y-12233571D01*
X18525476Y-12214524D01*
X18535000Y-12185952D01*
X18544524Y-12138333D01*
X18544524Y-12100238D01*
X18535000Y-12052619D01*
X18525476Y-12024048D01*
X18515952Y-12005000D01*
X18496905Y-11976428D01*
X18487381Y-11966905D01*
D13*
X13525000Y-12369000D02*
G75*
G03*
X13525000Y-12369000I-20000J0D01*
G01*
D11*
X13820714Y-12259476D02*
X13839762Y-12259476D01*
X13858809Y-12269000D01*
X13868333Y-12278524D01*
X13877857Y-12297571D01*
X13887381Y-12335667D01*
X13887381Y-12383286D01*
X13877857Y-12421381D01*
X13868333Y-12440428D01*
X13858809Y-12449952D01*
X13839762Y-12459476D01*
X13820714Y-12459476D01*
X13801667Y-12449952D01*
X13792143Y-12440428D01*
X13782619Y-12421381D01*
X13773095Y-12383286D01*
X13773095Y-12335667D01*
X13782619Y-12297571D01*
X13792143Y-12278524D01*
X13801667Y-12269000D01*
X13820714Y-12259476D01*
X13973095Y-12440428D02*
X13982619Y-12449952D01*
X13973095Y-12459476D01*
X13963571Y-12449952D01*
X13973095Y-12440428D01*
X13973095Y-12459476D01*
X14154048Y-12326143D02*
X14154048Y-12459476D01*
X14106428Y-12249952D02*
X14058809Y-12392809D01*
X14182619Y-12392809D01*
X14296905Y-12259476D02*
X14315952Y-12259476D01*
X14335000Y-12269000D01*
X14344524Y-12278524D01*
X14354048Y-12297571D01*
X14363571Y-12335667D01*
X14363571Y-12383286D01*
X14354048Y-12421381D01*
X14344524Y-12440428D01*
X14335000Y-12449952D01*
X14315952Y-12459476D01*
X14296905Y-12459476D01*
X14277857Y-12449952D01*
X14268333Y-12440428D01*
X14258809Y-12421381D01*
X14249286Y-12383286D01*
X14249286Y-12335667D01*
X14258809Y-12297571D01*
X14268333Y-12278524D01*
X14277857Y-12269000D01*
X14296905Y-12259476D01*
X14487381Y-12259476D02*
X14506428Y-12259476D01*
X14525476Y-12269000D01*
X14535000Y-12278524D01*
X14544524Y-12297571D01*
X14554048Y-12335667D01*
X14554048Y-12383286D01*
X14544524Y-12421381D01*
X14535000Y-12440428D01*
X14525476Y-12449952D01*
X14506428Y-12459476D01*
X14487381Y-12459476D01*
X14468333Y-12449952D01*
X14458809Y-12440428D01*
X14449286Y-12421381D01*
X14439762Y-12383286D01*
X14439762Y-12335667D01*
X14449286Y-12297571D01*
X14458809Y-12278524D01*
X14468333Y-12269000D01*
X14487381Y-12259476D01*
X14639762Y-12459476D02*
X14639762Y-12326143D01*
X14639762Y-12345190D02*
X14649286Y-12335667D01*
X14668333Y-12326143D01*
X14696905Y-12326143D01*
X14715952Y-12335667D01*
X14725476Y-12354714D01*
X14725476Y-12459476D01*
X14725476Y-12354714D02*
X14735000Y-12335667D01*
X14754048Y-12326143D01*
X14782619Y-12326143D01*
X14801667Y-12335667D01*
X14811190Y-12354714D01*
X14811190Y-12459476D01*
X14906428Y-12459476D02*
X14906428Y-12326143D01*
X14906428Y-12345190D02*
X14915952Y-12335667D01*
X14935000Y-12326143D01*
X14963571Y-12326143D01*
X14982619Y-12335667D01*
X14992143Y-12354714D01*
X14992143Y-12459476D01*
X14992143Y-12354714D02*
X15001667Y-12335667D01*
X15020714Y-12326143D01*
X15049286Y-12326143D01*
X15068333Y-12335667D01*
X15077857Y-12354714D01*
X15077857Y-12459476D01*
X15468333Y-12249952D02*
X15296905Y-12507095D01*
X15725476Y-12259476D02*
X15744524Y-12259476D01*
X15763571Y-12269000D01*
X15773095Y-12278524D01*
X15782619Y-12297571D01*
X15792143Y-12335667D01*
X15792143Y-12383286D01*
X15782619Y-12421381D01*
X15773095Y-12440428D01*
X15763571Y-12449952D01*
X15744524Y-12459476D01*
X15725476Y-12459476D01*
X15706428Y-12449952D01*
X15696905Y-12440428D01*
X15687381Y-12421381D01*
X15677857Y-12383286D01*
X15677857Y-12335667D01*
X15687381Y-12297571D01*
X15696905Y-12278524D01*
X15706428Y-12269000D01*
X15725476Y-12259476D01*
X15877857Y-12440428D02*
X15887381Y-12449952D01*
X15877857Y-12459476D01*
X15868333Y-12449952D01*
X15877857Y-12440428D01*
X15877857Y-12459476D01*
X16011190Y-12259476D02*
X16030238Y-12259476D01*
X16049286Y-12269000D01*
X16058809Y-12278524D01*
X16068333Y-12297571D01*
X16077857Y-12335667D01*
X16077857Y-12383286D01*
X16068333Y-12421381D01*
X16058809Y-12440428D01*
X16049286Y-12449952D01*
X16030238Y-12459476D01*
X16011190Y-12459476D01*
X15992143Y-12449952D01*
X15982619Y-12440428D01*
X15973095Y-12421381D01*
X15963571Y-12383286D01*
X15963571Y-12335667D01*
X15973095Y-12297571D01*
X15982619Y-12278524D01*
X15992143Y-12269000D01*
X16011190Y-12259476D01*
X16268333Y-12459476D02*
X16154048Y-12459476D01*
X16211190Y-12459476D02*
X16211190Y-12259476D01*
X16192143Y-12288048D01*
X16173095Y-12307095D01*
X16154048Y-12316619D01*
X16449286Y-12259476D02*
X16354048Y-12259476D01*
X16344524Y-12354714D01*
X16354048Y-12345190D01*
X16373095Y-12335667D01*
X16420714Y-12335667D01*
X16439762Y-12345190D01*
X16449286Y-12354714D01*
X16458809Y-12373762D01*
X16458809Y-12421381D01*
X16449286Y-12440428D01*
X16439762Y-12449952D01*
X16420714Y-12459476D01*
X16373095Y-12459476D01*
X16354048Y-12449952D01*
X16344524Y-12440428D01*
X16525476Y-12259476D02*
X16658809Y-12259476D01*
X16573095Y-12459476D01*
X16725476Y-12259476D02*
X16725476Y-12297571D01*
X16801667Y-12259476D02*
X16801667Y-12297571D01*
X17096905Y-12535667D02*
X17087381Y-12526143D01*
X17068333Y-12497571D01*
X17058810Y-12478524D01*
X17049286Y-12449952D01*
X17039762Y-12402333D01*
X17039762Y-12364238D01*
X17049286Y-12316619D01*
X17058810Y-12288048D01*
X17068333Y-12269000D01*
X17087381Y-12240428D01*
X17096905Y-12230905D01*
X17277857Y-12459476D02*
X17163571Y-12459476D01*
X17220714Y-12459476D02*
X17220714Y-12259476D01*
X17201667Y-12288048D01*
X17182619Y-12307095D01*
X17163571Y-12316619D01*
X17401667Y-12259476D02*
X17420714Y-12259476D01*
X17439762Y-12269000D01*
X17449286Y-12278524D01*
X17458810Y-12297571D01*
X17468333Y-12335667D01*
X17468333Y-12383286D01*
X17458810Y-12421381D01*
X17449286Y-12440428D01*
X17439762Y-12449952D01*
X17420714Y-12459476D01*
X17401667Y-12459476D01*
X17382619Y-12449952D01*
X17373095Y-12440428D01*
X17363571Y-12421381D01*
X17354048Y-12383286D01*
X17354048Y-12335667D01*
X17363571Y-12297571D01*
X17373095Y-12278524D01*
X17382619Y-12269000D01*
X17401667Y-12259476D01*
X17639762Y-12326143D02*
X17639762Y-12459476D01*
X17592143Y-12249952D02*
X17544524Y-12392809D01*
X17668333Y-12392809D01*
X17896905Y-12459476D02*
X17896905Y-12259476D01*
X17982619Y-12459476D02*
X17982619Y-12354714D01*
X17973095Y-12335667D01*
X17954048Y-12326143D01*
X17925476Y-12326143D01*
X17906429Y-12335667D01*
X17896905Y-12345190D01*
X18106429Y-12459476D02*
X18087381Y-12449952D01*
X18077857Y-12440428D01*
X18068333Y-12421381D01*
X18068333Y-12364238D01*
X18077857Y-12345190D01*
X18087381Y-12335667D01*
X18106429Y-12326143D01*
X18135000Y-12326143D01*
X18154048Y-12335667D01*
X18163571Y-12345190D01*
X18173095Y-12364238D01*
X18173095Y-12421381D01*
X18163571Y-12440428D01*
X18154048Y-12449952D01*
X18135000Y-12459476D01*
X18106429Y-12459476D01*
X18287381Y-12459476D02*
X18268333Y-12449952D01*
X18258810Y-12430905D01*
X18258810Y-12259476D01*
X18439762Y-12449952D02*
X18420714Y-12459476D01*
X18382619Y-12459476D01*
X18363571Y-12449952D01*
X18354048Y-12430905D01*
X18354048Y-12354714D01*
X18363571Y-12335667D01*
X18382619Y-12326143D01*
X18420714Y-12326143D01*
X18439762Y-12335667D01*
X18449286Y-12354714D01*
X18449286Y-12373762D01*
X18354048Y-12392809D01*
X18525476Y-12449952D02*
X18544524Y-12459476D01*
X18582619Y-12459476D01*
X18601667Y-12449952D01*
X18611190Y-12430905D01*
X18611190Y-12421381D01*
X18601667Y-12402333D01*
X18582619Y-12392809D01*
X18554048Y-12392809D01*
X18535000Y-12383286D01*
X18525476Y-12364238D01*
X18525476Y-12354714D01*
X18535000Y-12335667D01*
X18554048Y-12326143D01*
X18582619Y-12326143D01*
X18601667Y-12335667D01*
X18677857Y-12535667D02*
X18687381Y-12526143D01*
X18706429Y-12497571D01*
X18715952Y-12478524D01*
X18725476Y-12449952D01*
X18735000Y-12402333D01*
X18735000Y-12364238D01*
X18725476Y-12316619D01*
X18715952Y-12288048D01*
X18706429Y-12269000D01*
X18687381Y-12240428D01*
X18677857Y-12230905D01*
M02*
